<?xml version="1.0" standalone="no"?>
<!DOCTYPE svg PUBLIC "-//W3C//DTD SVG 20010904//EN"
 "http://www.w3.org/TR/2001/REC-SVG-20010904/DTD/svg10.dtd">
<svg version="1.0" xmlns="http://www.w3.org/2000/svg"
 width="67.000000pt" height="48.000000pt" viewBox="0 0 67.000000 48.000000"
 preserveAspectRatio="xMidYMid meet">

<g transform="translate(0.000000,48.000000) scale(0.100000,-0.100000)"
fill="#000000" stroke="none">
<path d="M0 235 l0 -235 335 0 335 0 0 235 0 235 -335 0 -335 0 0 -235z m421
112 c25 -16 39 -37 51 -74 17 -50 17 -54 -2 -98 -25 -58 -68 -85 -135 -85 -64
0 -107 26 -131 79 -11 22 -22 41 -26 41 -13 0 -68 -52 -68 -65 0 -16 22 -25
63 -26 l32 -1 -30 -9 c-16 -5 -45 -7 -62 -4 -27 5 -33 11 -33 31 0 19 13 32
55 59 38 25 55 42 55 57 0 30 37 86 68 103 43 23 123 19 163 -8z m163 -23 c9
-3 16 -12 16 -18 0 -15 -47 -59 -80 -76 -22 -11 -20 -8 9 24 40 41 35 55 -26
66 -37 8 -37 8 14 9 28 0 58 -2 67 -5z"/>
<path d="M313 245 c-13 -19 -23 -37 -23 -40 0 -3 18 -5 40 -5 22 0 40 5 40 10
0 11 -28 70 -33 70 -1 0 -12 -16 -24 -35z"/>
</g>
</svg>
